<svg xmlns="http://www.w3.org/2000/svg" viewBox="0 0 50 50"><defs><style>.cls-2,.cls-3{fill:#fff}.cls-2{fill-rule:evenodd}</style></defs><g id="Layer_2" data-name="Layer 2"><g id="Layer_1-2" data-name="Layer 1"><path d="M25 50A25 25 0 1 0 0 25a25 25 0 0 0 25 25Z" style="fill:#408ef7"/><path class="cls-2" d="M26.93 21.36h-9.84v7h9.84Zm-9.84-2.09A2.09 2.09 0 0 0 15 21.36v7a2.09 2.09 0 0 0 2.09 2.09h9.84A2.1 2.1 0 0 0 29 28.4v-7a2.1 2.1 0 0 0-2.09-2.09Z"/><path class="cls-3" d="M24 26.28a1.37 1.37 0 1 1-1.36-1.4 1.38 1.38 0 0 1 1.36 1.4Z"/><path class="cls-3" d="M25.72 26.28a1.37 1.37 0 1 1-1.36-1.4 1.38 1.38 0 0 1 1.36 1.4Z"/><path class="cls-2" d="M28.69 21.23v1.9h.86a1.18 1.18 0 0 0 1.28-1 1.18 1.18 0 0 0-1.28-1h-.89a.77.77 0 0 1 .03.1Z"/><path class="cls-2" d="M33.1 29.65Zm-15.6 3.28v-2.61h.3v2.61a1.2 1.2 0 0 0 1.2 1.18h10v-3a1.81 1.81 0 0 1 1.83-1.79h2.27a.87.87 0 0 1 .28.05v-12.3a1.2 1.2 0 0 0-1.21-1.18H17.8v3.49h-.3v.15H17a2 2 0 0 0-.56.08v-.15a1.88 1.88 0 0 0-.3.12v-5.29h16A2.81 2.81 0 0 1 35 17.07v14.82l-.23.23-3.29 3.35-.24.24H19a2.8 2.8 0 0 1-2.83-2.78v-2.82a1.88 1.88 0 0 0 .3.12v.16a2 2 0 0 0 .56.08h.46Zm16.19-.14 1-1-.13.14Zm-1.52-18.2Zm.93 16.35a.86.86 0 0 0 .28 0v.34L30.62 34v-2.87a.2.2 0 0 1 .21-.19Z"/></g></g></svg>